{"title":"The Hunger Games Catching Fire 2013 720p BRRip X264 AC3-EVO [P2P","uid":9498550,"size":4169498938,"categoryP":"video","categoryS":"hd___movies","magnet":"?xt=urn:btih:6eaeb6a4d7907bce2e766bd1ab35a47e6fcd738a&amp;dn=The+Hunger+Games+Catching+Fire+2013+720p+BRRip+X264+AC3-EVO+%5BP2P&amp;tr=udp%3A%2F%2Ftracker.openbittorrent.com%3A80&amp;tr=udp%3A%2F%2Fopen.demonii.com%3A1337&amp;tr=udp%3A%2F%2Ftracker.coppersurfer.tk%3A6969&amp;tr=udp%3A%2F%2Fexodus.desync.com%3A6969","seeders":1,"leechers":0,"uploader":"ValidusVyto","files":4,"time":1390164496,"description":"The.Hunger.Games.Catching.Fire.2013.720p.BRRip.x264.AC3-EVO\n\nInfo:\nGeneral\nUnique ID                                : 9774478251736583523538443599042400837 (0x75A7EFC3009B6D5F869E8548C2D5245)\nComplete name                            : The.Hunger.Games.Catching.Fire.2013.720p.BRRip.x264.AC3-EVO.[P2PDL]/The.Hunger.Games.Catching.Fire.2013.720p.BRRip.x264.AC3-EVO/The.Hunger.Games.Catching.Fire.2013.720p.BRRip.x264.AC3-EVO.mkv\nFormat                                   : Matroska\nFormat version                           : Version 2\nFile size                                : 3.88 GiB\nDuration                                 : 2h 26mn\nOverall bit rate                         : 3 801 Kbps\nWriting application                      : HandBrake 0.9.9\nWriting library                          : libmkv 0.6.5\n\nVideo\nID                                       : 1\nFormat                                   : AVC\nFormat/Info                              : Advanced Video Codec\nFormat profile                           : &lt;a class=&quot;__cf_email__&quot; href=&quot;/cdn-cgi/l/email-protection&quot; data-cfemail=&quot;8fcdeefceae3e6e1eacfc3bba1bf&quot;&gt;[email&amp;#160;protected]&lt;/a&gt;&lt;script cf-hash='f9e31' type=&quot;text/javascript&quot;&gt;\n/* &lt;![CDATA[ */!function(){try{var t=&quot;currentScript&quot;in document?document.currentScript:function(){for(var t=document.getElementsByTagName(&quot;script&quot;),e=t.length;e--;)if(t[e].getAttribute(&quot;cf-hash&quot;))return t[e]}();if(t&amp;&amp;t.previousSibling){var e,r,n,i,c=t.previousSibling,a=c.getAttribute(&quot;data-cfemail&quot;);if(a){for(e=&quot;&quot;,r=parseInt(a.substr(0,2),16),n=2;a.length-n;n+=2)i=parseInt(a.substr(n,2),16)^r,e+=String.fromCharCode(i);e=document.createTextNode(e),c.parentNode.replaceChild(e,c)}}}catch(u){}}();/* ]]&gt; */&lt;/script&gt;\nFormat settings, CABAC                   : No\nFormat settings, ReFrames                : 1 frame\nCodec ID                                 : V_MPEG4/ISO/AVC\nDuration                                 : 2h 26mn\nBit rate                                 : 3 300 Kbps\nWidth                                    : 1 280 pixels\nHeight                                   : 528 pixels\nDisplay aspect ratio                     : 2.40:1\nFrame rate mode                          : Variable\nFrame rate                               : 23.976 fps\nColor space                              : YUV\nChroma subsampling                       : 4:2:0\nBit depth                                : 8 bits\nScan type                                : Progressive\nBits/(Pixel*Frame)                       : 0.204\nStream size                              : 3.35 GiB (86%)\nWriting library                          : x264 core 130 r2273 b3065e6\nEncoding settings                        : cabac=0 / ref=1 / deblock=0:0:0 / analyse=0:0 / me=dia / subme=0 / psy=1 / psy_rd=1.00:0.00 / mixed_ref=0 / me_range=16 / chroma_me=1 / trellis=0 / 8x8dct=0 / cqm=0 / deadzone=21,11 / fast_pskip=1 / chroma_qp_offset=0 / threads=6 / lookahead_threads=1 / sliced_threads=0 / nr=0 / decimate=1 / interlaced=0 / bluray_compat=0 / constrained_intra=0 / bframes=0 / weightp=0 / keyint=240 / keyint_min=24 / scenecut=0 / intra_refresh=0 / rc_lookahead=0 / rc=abr / mbtree=0 / bitrate=3300 / ratetol=1.0 / qcomp=0.60 / qpmin=0 / qpmax=69 / qpstep=4 / vbv_maxrate=20000 / vbv_bufsize=25000 / nal_hrd=none / ip_ratio=1.40 / aq=0\nLanguage                                 : English\nDefault                                  : Yes\nForced                                   : No\nColor primaries                          : BT.709-5, BT.1361, IEC 61966-2-4, SMPTE RP177\nTransfer characteristics                 : BT.709-5, BT.1361\nMatrix coefficients                      : BT.709-5, BT.1361, IEC 61966-2-4 709, SMPTE RP177\n\nAudio\nID                                       : 2\nFormat                                   : AC-3\nFormat/Info                              : Audio Coding 3\nMode extension                           : CM (complete main)\nCodec ID                                 : A_AC3\nDuration                                 : 2h 26mn\nBit rate mode                            : Constant\nBit rate                                 : 448 Kbps\nChannel(s)                               : 6 channels\nChannel positions                        : Front: L C R, Side: L R, LFE\nSampling rate                            : 48.0 KHz\nBit depth                                : 16 bits\nCompression mode                         : Lossy\nStream size                              : 469 MiB (12%)\nLanguage                                 : English\nDefault                                  : Yes\nForced                                   : No\n\nMenu\n00:00:00.000                             : Chapter 1\n00:11:24.783                             : Chapter 2\n00:16:48.179                             : Chapter 3\n00:25:38.253                             : Chapter 4\n00:35:51.824                             : Chapter 5\n00:44:22.805                             : Chapter 6\n00:52:13.154                             : Chapter 7\n01:01:11.609                             : Chapter 8\n01:08:12.446                             : Chapter 9\n01:16:49.004                             : Chapter 10\n01:22:39.896                             : Chapter 11\n01:29:22.090                             : Chapter 12\n01:40:44.188                             : Chapter 13\n01:50:48.041                             : Chapter 14\n02:02:47.301                             : Chapter 15\n02:09:59.233                             : Chapter 16\n\n\n\n\nScreenshots:\nhttp://beeimg.com/images/t39536483191.jpg\nhttp://beeimg.com/images/y73668557082.jpg","torrent":{"xt":"urn:btih:6eaeb6a4d7907bce2e766bd1ab35a47e6fcd738a","amp;dn":"The+Hunger+Games+Catching+Fire+2013+720p+BRRip+X264+AC3-EVO+%5BP2P","amp;tr":["udp%3A%2F%2Ftracker.openbittorrent.com%3A80","udp%3A%2F%2Fopen.demonii.com%3A1337","udp%3A%2F%2Ftracker.coppersurfer.tk%3A6969","udp%3A%2F%2Fexodus.desync.com%3A6969"],"infoHash":"6eaeb6a4d7907bce2e766bd1ab35a47e6fcd738a","infoHashBuffer":{"type":"Buffer","data":[110,174,182,164,215,144,123,206,46,118,107,209,171,53,164,126,111,205,115,138]},"announce":[],"urlList":[]}}